# xmcd
#
# Track frame offsets:
# 150
# 10063
# 26673
# 49887
# 60315
# 76962
# 93760
# 107926
# 122631
# 138957
# 151731
# 168904
# 180253
# 191562
# 201682
# 213610
#
# Disc length: 3090 seconds
#
#
# Revision: 1
# Processed by: cddbd v1.5.1PL0 Copyright (c) Steve Scherf et al.
# Submitted via: FreeRIP 2.51 
#
DISCID=cf0c1010
DTITLE=Gilda Solve - The Best Is Yet To Come
DYEAR=2001
DGENRE=Jazz
TTITLE0=S'Wonderfull
TTITLE1=Whjat Wonderfull World
TTITLE2=Sine I fell for You
TTITLE3=The Best Is Yet To Come
TTITLE4=Route 66
TTITLE5=My Blues Haven
TTITLE6=Old Devil Moon
TTITLE7=Them There Eyes
TTITLE8=Makin' Whoopee
TTITLE9=Swet Georgia Brown
TTITLE10=It Had To be You
TTITLE11=Orange Colored Sky
TTITLE12=Fly me To The Moon
TTITLE13=I d'ont Mean a thing if It Ain't Got Taht Swing
TTITLE14=Red Top
TTITLE15=Teach Me Tonight
EXTD=YEAR: 2001
EXTT0=
EXTT1=
EXTT2=
EXTT3=
EXTT4=
EXTT5=
EXTT6=
EXTT7=
EXTT8=
EXTT9=
EXTT10=
EXTT11=
EXTT12=
EXTT13=
EXTT14=
EXTT15=
PLAYORDER=
